PathFileType	4	(X/Y/Z)	Walk9.trc
DataRate	CameraRate	NumFrames	NumMarkers	Units	OrigDataRate	OrigDataStartFrame	OrigNumFrames
200.000000	200.000000	4	59	mm	200.000000	702	743
Frame#	Times		LToe		LBHD		LWRR		LElbowM		C7		RMT1		LACR1		RMT5		RToe		RTB2		LUA1		LCAR		RTB3		RWRU		LWRU		RCAR		RFA1		RCAL		RMMAL		RLFC		LMMAL		LTH2		RElbowM		LTB2		LPSI		LASI		LTH3		LLFC		RTH3		RASI		RPSI		LFHD		LCAL		STRN		LMT5		RBHD		RACR1		RMFC		RLMAL		RElbow		LLMAL		LMFC		RFHD		LTB1		LTH4		RUA1		LTB4		RBack		LTH1		RTB1		LElbow		RTH2		LMT1		RTH1		RTH4		LTB3		RTB4		RWRR		T10
			X1	Y1	Z1	X2	Y2	Z2	X3	Y3	Z3	X4	Y4	Z4	X5	Y5	Z5	X6	Y6	Z6	X7	Y7	Z7	X8	Y8	Z8	X9	Y9	Z9	X10	Y10	Z10	X11	Y11	Z11	X12	Y12	Z12	X13	Y13	Z13	X14	Y14	Z14	X15	Y15	Z15	X16	Y16	Z16	X17	Y17	Z17	X18	Y18	Z18	X19	Y19	Z19	X20	Y20	Z20	X21	Y21	Z21	X22	Y22	Z22	X23	Y23	Z23	X24	Y24	Z24	X25	Y25	Z25	X26	Y26	Z26	X27	Y27	Z27	X28	Y28	Z28	X29	Y29	Z29	X30	Y30	Z30	X31	Y31	Z31	X32	Y32	Z32	X33	Y33	Z33	X34	Y34	Z34	X35	Y35	Z35	X36	Y36	Z36	X37	Y37	Z37	X38	Y38	Z38	X39	Y39	Z39	X40	Y40	Z40	X41	Y41	Z41	X42	Y42	Z42	X43	Y43	Z43	X44	Y44	Z44	X45	Y45	Z45	X46	Y46	Z46	X47	Y47	Z47	X48	Y48	Z48	X49	Y49	Z49	X50	Y50	Z50	X51	Y51	Z51	X52	Y52	Z52	X53	Y53	Z53	X54	Y54	Z54	X55	Y55	Z55	X56	Y56	Z56	X57	Y57	Z57	X58	Y58	Z58	X59	Y59	Z59

702	3.51	827.66	39.224	-100.69	639.85	1616.8	-115.11	723.33	811.42	-330.02	639.91	1080.4	-338.48	606.65	1485.2	-55.119	728.18	56.17	34.955	698.45	1420.5	-223.16	687.99	67.218	106.03	772.45	69.381	73.809	731.36	322.54	93.244	676.87	1216.2	-299.12	666.24	942.02	-340.94	695.55	240.32	20.087	654.7	812.49	199.87	795.9	803.42	-313.11	728.38	797.54	209.58	634.92	931.23	227	532.84	111	11.484	624.09	129.27	-2.6098	790.6	542.01	99.795	649.29	69.481	-44.416	743.87	683.35	-161.57	561.22	1094.1	153.35	695.49	297.96	-151.36	515.56	1041.9	-82.896	706.42	1036.4	-202.63	687.23	581.7	-177.8	678.83	517.86	-168.16	779.04	585.25	102.44	702.02	998.05	105.79	511.56	1041.4	-13.863	817.65	1650.5	-87.908	560.17	34.118	-73.866	527.82	1229.5	-49.932	737.36	23.144	-157.06	644.16	1607.8	21.694	584.09	1374.2	98.837	776.83	510.71	-26.764	592.46	138.21	73.356	599.92	1089.2	230.12	622.83	59.494	-124.98	669.74	497.61	-41.076	819.92	1647.4	-13.025	720.93	390.26	-83.478	681.93	674.57	-199.43	676.52	1247.9	186.77	702.44	299.24	-79.469	715.21	1426.9	101.05	675.72	766.6	-219.24	793.59	399.01	21.561	593.27	1069.8	-268.29	807.1	700.49	84.509	779.69	29.915	-77.197	715.55	762.36	82.246	748.65	673.89	121.34	686.67	208.51	-78.593	742.6	315.44	19.515	723.28	842.47	158.67	813.73	1237.9	-58.328
703	3.515	827.81	38.878	-100.87	644.09	1617	-115.24	731.66	812.24	-330.28	646.03	1080.5	-339.04	610.87	1485.3	-55.305	744.67	55.344	35.122	702.69	1420.8	-223.32	703.84	65.43	105.97	788.61	69.316	74.192	741.51	321.7	92.994	682.19	1216.5	-299.47	673.43	942.34	-341.31	707.85	238.65	19.773	658.23	812.53	199.38	804.29	804.85	-313.31	731.87	797.5	209.25	638.58	931.32	226.57	548.07	105.72	10.743	638.97	125.96	-2.999	796.52	542.77	99.596	649.21	69.426	-44.31	746.6	682.96	-161.71	565.19	1094.3	152.94	696.27	297.72	-151.5	519.93	1042.1	-82.928	710.93	1036.8	-202.96	689.33	581.66	-177.95	680.43	517.75	-168.29	784.67	586.04	102.31	706.56	998.29	105.57	516.02	1041.5	-13.925	821.88	1650.7	-87.895	560.19	34.078	-73.771	532.17	1229.6	-50.126	737.37	23.127	-157.16	648.32	1608	21.541	588.3	1374.3	98.605	782.84	511.16	-26.883	606.83	134.21	72.828	603.81	1089.4	229.74	622.86	59.485	-124.93	671.35	497.55	-41.301	824.08	1647.5	-13.009	722.19	389.93	-83.692	684.56	674.55	-199.66	680.58	1248	186.5	703.31	299	-79.603	719.42	1427	100.87	678.95	766.39	-219.24	802.32	399.53	21.412	599.36	1069.6	-268.89	812.13	701.35	84.224	779.67	30.027	-77.205	719.93	762.65	80.174	753.93	674.45	121.31	687.25	208.37	-78.691	753.18	314.82	19.23	726.93	842.46	158.31	817.98	1238.1	-58.656
704	3.52	827.96	38.54	-101.05	648.34	1617.2	-115.36	739.95	813.06	-330.52	652.13	1080.6	-339.6	615.11	1485.4	-55.472	761.22	54.565	35.288	706.94	1421.1	-223.47	719.78	63.674	105.91	804.82	69.281	74.576	751.64	320.82	92.757	687.5	1216.8	-299.8	680.61	942.65	-341.68	720.19	236.99	19.478	661.81	812.54	198.91	812.63	806.26	-313.49	735.39	797.43	208.92	642.28	931.38	226.17	563.5	100.48	9.9943	653.99	122.68	-3.3885	802.31	543.46	99.424	649.17	69.368	-44.201	749.34	682.56	-161.83	569.18	1094.5	152.57	697.07	297.48	-151.63	524.3	1042.2	-82.952	715.42	1037.1	-203.27	691.44	581.61	-178.1	682.06	517.62	-168.43	790.2	586.75	102.21	711.1	998.45	105.39	520.48	1041.6	-13.984	826.11	1650.9	-87.882	560.23	34.035	-73.671	536.53	1229.6	-50.295	737.38	23.11	-157.26	652.49	1608.1	21.39	592.53	1374.3	98.389	788.68	511.51	-26.983	621.35	130.23	72.302	607.74	1089.5	229.39	622.89	59.479	-124.88	672.93	497.49	-41.48	828.25	1647.7	-12.994	723.46	389.58	-83.892	687.18	674.5	-199.89	684.66	1248.1	186.25	704.2	298.76	-79.734	723.66	1427	100.72	682.2	766.17	-219.24	811	400.02	21.263	605.45	1069.4	-269.47	817.08	702.11	83.905	779.65	30.126	-77.211	724.2	762.87	78.184	759.13	674.94	121.28	687.81	208.21	-78.752	763.76	314.19	18.957	730.61	842.41	157.97	822.25	1238.3	-58.974
705	3.525	828.12	38.207	-101.23	652.61	1617.3	-115.48	748.22	813.86	-330.75	658.22	1080.7	-340.15	619.37	1485.5	-55.621	777.82	53.846	35.448	711.21	1421.4	-223.6	735.8	61.964	105.84	821.08	69.286	74.958	761.75	319.93	92.535	692.81	1217	-300.13	687.76	942.93	-342.04	732.56	235.35	19.205	665.43	812.52	198.47	820.94	807.65	-313.65	738.97	797.34	208.6	646.02	931.41	225.8	579.11	95.298	9.2413	669.14	119.45	-3.7755	807.99	544.06	99.276	649.15	69.307	-44.091	752.07	682.15	-161.93	573.18	1094.7	152.23	697.9	297.22	-151.75	528.68	1042.3	-82.967	719.88	1037.3	-203.54	693.58	581.55	-178.25	683.71	517.49	-168.56	795.63	587.4	102.14	715.62	998.52	105.25	524.96	1041.7	-14.04	830.36	1651.1	-87.871	560.28	33.99	-73.569	540.9	1229.7	-50.44	737.38	23.092	-157.36	656.67	1608.1	21.243	596.78	1374.4	98.189	794.36	511.75	-27.063	636	126.27	71.781	611.68	1089.6	229.08	622.93	59.474	-124.82	674.5	497.42	-41.62	832.43	1647.8	-12.98	724.74	389.23	-84.074	689.82	674.44	-200.13	688.75	1248.1	186.03	705.11	298.51	-79.858	727.92	1427	100.57	685.46	765.94	-219.23	819.62	400.49	21.116	611.54	1069.1	-270.05	821.95	702.77	83.555	779.64	30.212	-77.215	728.35	763.02	76.283	764.25	675.36	121.25	688.33	208.02	-78.774	774.32	313.56	18.701	734.31	842.35	157.65	826.53	1238.4	-59.281
